<svg xmlns="http://www.w3.org/2000/svg" xmlns:xlink="http://www.w3.org/1999/xlink" width="324.576" height="324.576" viewBox="0 0 324.576 324.576">
  <defs>
    <linearGradient id="linear-gradient" x1="0.5" x2="0.5" y2="1" gradientUnits="objectBoundingBox">
      <stop offset="0" stop-color="#51ecb4"/>
      <stop offset="1" stop-color="#339db8"/>
    </linearGradient>
    <filter id="Ellipse_812" x="0" y="0" width="324.576" height="324.576" filterUnits="userSpaceOnUse">
      <feOffset dy="25" input="SourceAlpha"/>
      <feGaussianBlur stdDeviation="30.5" result="blur"/>
      <feFlood flood-color="#ffcd00" result="color"/>
      <feComposite operator="out" in="SourceGraphic" in2="blur"/>
      <feComposite operator="in" in="color"/>
      <feComposite operator="in" in2="SourceGraphic"/>
    </filter>
  </defs>
  <g id="Group_101079" data-name="Group 101079" transform="translate(139.247 133.118)">
    <g id="Group_101024" data-name="Group 101024" transform="translate(0 0)">
      <g id="Group_101022" data-name="Group 101022">
        <path id="Path_33736" data-name="Path 33736" d="M122.235,0H102.852A3.3,3.3,0,0,0,99.56,3.29V46.561a3.3,3.3,0,0,0,3.094,3.284h19.581a3.293,3.293,0,0,0,3.29-3.29V3.29A3.293,3.293,0,0,0,122.235,0Z" transform="translate(-99.56)" stroke="rgba(0,0,0,0)" stroke-width="0.079" fill="url(#linear-gradient)"/>
        <path id="Path_33736-2" data-name="Path 33736" d="M122.235,0H102.852A3.3,3.3,0,0,0,99.56,3.29V46.561a3.3,3.3,0,0,0,3.094,3.284h19.581a3.293,3.293,0,0,0,3.29-3.29V3.29A3.293,3.293,0,0,0,122.235,0Z" transform="translate(-99.56)" fill="#e8f0ff" stroke="rgba(255,255,255,0.12)" stroke-width="0.144" style="mix-blend-mode: multiply;isolation: isolate"/>
        <path id="Path_33736-3" data-name="Path 33736" d="M122.235,0H102.852A3.3,3.3,0,0,0,99.56,3.29V46.561a3.3,3.3,0,0,0,3.094,3.284h19.581a3.293,3.293,0,0,0,3.29-3.29V3.29A3.293,3.293,0,0,0,122.235,0Z" transform="translate(-99.56)" fill="rgba(73,214,181,0.27)" stroke="rgba(255,255,255,0.12)" stroke-width="0.144" style="mix-blend-mode: multiply;isolation: isolate"/>
      </g>
      <g id="Group_101021" data-name="Group 101021" transform="translate(0.721 0.721)">
        <path id="Path_33737" data-name="Path 33737" d="M126.345,4.85h-3.156l-.573,1.016a1.7,1.7,0,0,1-1.48.862h-8.97a1.7,1.7,0,0,1-1.479-.862l-.574-1.016h-3.152A2.562,2.562,0,0,0,104.4,7.412V50.68a2.562,2.562,0,0,0,2.562,2.562h19.383a2.562,2.562,0,0,0,2.562-2.562V7.409A2.562,2.562,0,0,0,126.345,4.85Z" transform="translate(-104.4 -4.85)" fill="none" stroke="#fff" stroke-width="0.144" opacity="0.51"/>
        <path id="Path_33737-2" data-name="Path 33737" d="M126.345,4.85h-3.156l-.573,1.016a1.7,1.7,0,0,1-1.48.862h-8.97a1.7,1.7,0,0,1-1.479-.862l-.574-1.016h-3.152A2.562,2.562,0,0,0,104.4,7.412V50.68a2.562,2.562,0,0,0,2.562,2.562h19.383a2.562,2.562,0,0,0,2.562-2.562V7.409A2.562,2.562,0,0,0,126.345,4.85Z" transform="translate(-104.4 -4.85)" fill="#e8f0ff" stroke="rgba(255,255,255,0.12)" stroke-width="0.144" style="mix-blend-mode: multiply;isolation: isolate"/>
        <path id="Path_33737-3" data-name="Path 33737" d="M126.345,4.85h-3.156l-.573,1.016a1.7,1.7,0,0,1-1.48.862h-8.97a1.7,1.7,0,0,1-1.479-.862l-.574-1.016h-3.152A2.562,2.562,0,0,0,104.4,7.412V50.68a2.562,2.562,0,0,0,2.562,2.562h19.383a2.562,2.562,0,0,0,2.562-2.562V7.409A2.562,2.562,0,0,0,126.345,4.85Z" transform="translate(-104.4 -4.85)" fill="rgba(73,214,181,0.27)" stroke="rgba(255,255,255,0.12)" stroke-width="0.144" style="mix-blend-mode: multiply;isolation: isolate"/>
      </g>
      <g id="Group_101023" data-name="Group 101023" transform="translate(2.455 1.226)">
        <path id="Path_33738" data-name="Path 33738" d="M170.588,8.168h-6.029a.244.244,0,0,1-.244-.244h0a.244.244,0,0,1,.244-.244h6.029a.244.244,0,0,1,.243.244h0a.244.244,0,0,1-.243.244Z" transform="translate(-156.723 -7.68)" fill="#fff"/>
        <rect id="Rectangle_1694" data-name="Rectangle 1694" width="12.433" height="40.923" rx="0.899" transform="translate(8.623 4.998)" fill="#fff" opacity="0.08"/>
        <g id="Group_396" data-name="Group 396" transform="translate(0 5.18)" opacity="0.08">
          <rect id="Rectangle_1708" data-name="Rectangle 1708" width="7.221" height="1.828" rx="0.265" fill="#fff"/>
          <rect id="Rectangle_1709" data-name="Rectangle 1709" width="7.221" height="1.828" rx="0.265" transform="translate(0 2.743)" fill="#fff"/>
        </g>
        <rect id="Rectangle_1711" data-name="Rectangle 1711" width="7.679" height="1.005" rx="0.265" transform="translate(10.2 41.645)" fill="none" stroke="#fff" stroke-width="0.079" opacity="0.44"/>
        <path id="Path_33765" data-name="Path 33765" d="M192.274,207.725h-2.011a.5.5,0,0,1-.5-.5h0a.5.5,0,0,1,.5-.5h2.011a.5.5,0,0,1,.5.5h0A.5.5,0,0,1,192.274,207.725Z" transform="translate(-179.56 -163.09)" fill="none" stroke="#fff" stroke-width="0.079" opacity="0.44"/>
      </g>
    </g>
    <ellipse id="Ellipse_814" data-name="Ellipse 814" cx="12.288" cy="12.288" rx="12.288" ry="12.288" transform="translate(9.869 17.19)" fill="none" stroke="#161b54" stroke-width="2.068" opacity="0.25"/>
    <path id="Path_184539" data-name="Path 184539" d="M250.045,40.668l.654,1.2,1.2.654-1.2.654-.654,1.2-.654-1.2-1.2-.654,1.2-.654Z" transform="translate(-237.441 -26.41)" fill="#fff"/>
    <path id="Path_184540" data-name="Path 184540" d="M250.045,40.668l.654,1.2,1.2.654-1.2.654-.654,1.2-.654-1.2-1.2-.654,1.2-.654Z" transform="translate(-213.749 -5.246)" fill="#2e9898"/>
    <g id="Group_101025" data-name="Group 101025" transform="translate(10.753 16.882)">
      <g id="Group_101025-2" data-name="Group 101025">
        <ellipse id="Ellipse_810" data-name="Ellipse 810" cx="12.288" cy="12.288" rx="12.288" ry="12.288" fill="none" stroke="#fff" stroke-width="0.144" opacity="0.51"/>
        <ellipse id="Ellipse_811" data-name="Ellipse 811" cx="12.288" cy="12.288" rx="12.288" ry="12.288" fill="#e8eeff" stroke="rgba(255,255,255,0.12)" stroke-width="0.144" style="mix-blend-mode: multiply;isolation: isolate"/>
        <g data-type="innerShadowGroup">
          <ellipse id="Ellipse_812-2" data-name="Ellipse 812" cx="12.288" cy="12.288" rx="12.288" ry="12.288" fill="#ffbb62"/>
          <g transform="matrix(1, 0, 0, 1, -150, -150)" filter="url(#Ellipse_812)">
            <ellipse id="Ellipse_812-3" data-name="Ellipse 812" cx="12.288" cy="12.288" rx="12.288" ry="12.288" transform="translate(150 150)" fill="#fff"/>
          </g>
        </g>
      </g>
      <path id="Path_184538" data-name="Path 184538" d="M100.4,82.345a2.106,2.106,0,0,1,.371.817c.014.062.058.045.095.045h.895c.18,0,.242.062.242.24s0,.329,0,.494c0,.212-.054.266-.263.267-.283,0-.565,0-.848,0-.066,0-.094.014-.109.087a2.358,2.358,0,0,1-1.793,1.858,3.8,3.8,0,0,1-.519.11c-.027,0-.064-.007-.076.021s.024.046.042.065c.564.608,1.1,1.238,1.636,1.874.347.414.688.833,1.033,1.249a.193.193,0,0,1,.043.229.2.2,0,0,1-.208.108c-.339,0-.678-.008-1.016,0a.4.4,0,0,1-.356-.166c-.832-1-1.679-2-2.559-2.96-.109-.119-.218-.238-.33-.355a.26.26,0,0,1-.079-.192c0-.236,0-.472,0-.708a.194.194,0,0,1,.215-.213c.342,0,.684.013,1.025-.018a2.243,2.243,0,0,0,.983-.288,1.163,1.163,0,0,0,.5-.6c.038-.1.038-.1-.069-.1h-2.4c-.207,0-.263-.057-.264-.267,0-.168,0-.336,0-.5s.065-.23.233-.23h2.339c.027,0,.068,0,.079-.01s-.013-.056-.029-.08a1.246,1.246,0,0,0-.8-.507,3,3,0,0,0-.73-.079h-.848c-.176,0-.248-.072-.248-.249,0-.236,0-.472,0-.708,0-.164.069-.23.235-.23h4.912c.18,0,.239.061.24.241s0,.348,0,.522-.062.238-.233.238H100.4" transform="translate(-86.968 -73.29)" fill="#fff"/>
      <ellipse id="Ellipse_813" data-name="Ellipse 813" cx="10.09" cy="10.09" rx="10.09" ry="10.09" transform="translate(2.23 2.053)" fill="none" stroke="#fff" stroke-width="0.293"/>
    </g>
  </g>
</svg>
