<svg xmlns="http://www.w3.org/2000/svg" xmlns:xlink="http://www.w3.org/1999/xlink" width="39.939" height="46.493" viewBox="0 0 39.939 46.493">
  <defs>
    <linearGradient id="linear-gradient" x1="0.5" x2="0.5" y2="1" gradientUnits="objectBoundingBox">
      <stop offset="0" stop-color="#51ecb4"/>
      <stop offset="1" stop-color="#339db8"/>
    </linearGradient>
  </defs>
  <g id="Group_101084" data-name="Group 101084" transform="translate(0.1 0.068)">
    <g id="food" transform="translate(0 0)">
      <path id="Path_184581" data-name="Path 184581" d="M10.446,19.2a.844.844,0,0,1-.72-.4,3.322,3.322,0,0,0-2.6-1.777.867.867,0,0,1-.87-.818.845.845,0,0,1,.818-.871,5.007,5.007,0,0,1,4.088,2.58.845.845,0,0,1-.718,1.288Z" transform="translate(-5.964 -2.383)" fill="#436b1c"/>
      <g id="Group_101045" data-name="Group 101045" transform="translate(5.047 0.365)">
        <path id="Path_184582" data-name="Path 184582" d="M28.606,5.639a3.163,3.163,0,0,0-3.154-2.946h-.014a1.958,1.958,0,0,0-.068-.787,2.061,2.061,0,0,0-1.7-1.46,2.031,2.031,0,0,0-1.678.573,2.252,2.252,0,0,0-3.77,1.672s0,.008,0,.012a2.927,2.927,0,0,0-2.631,3.614A3.384,3.384,0,0,0,12.8,11.4a2.476,2.476,0,0,0-.135,3.716c2.037-1.665,4.177,3.9,6.7,8.348.837,1.476,9.879-.1,10.6.821.821-.738,1.351-13.592,1.374-14.721A4.072,4.072,0,0,0,28.606,5.639Z" transform="translate(-11.886 -0.431)" stroke="rgba(0,0,0,0)" stroke-width="0.079" fill="url(#linear-gradient)"/>
        <path id="Path_184598" data-name="Path 184598" d="M28.606,5.639a3.163,3.163,0,0,0-3.154-2.946h-.014a1.958,1.958,0,0,0-.068-.787,2.061,2.061,0,0,0-1.7-1.46,2.031,2.031,0,0,0-1.678.573,2.252,2.252,0,0,0-3.77,1.672s0,.008,0,.012a2.927,2.927,0,0,0-2.631,3.614A3.384,3.384,0,0,0,12.8,11.4a2.476,2.476,0,0,0-.135,3.716c2.037-1.665,4.177,3.9,6.7,8.348.837,1.476,9.879-.1,10.6.821.821-.738,1.351-13.592,1.374-14.721A4.072,4.072,0,0,0,28.606,5.639Z" transform="translate(-11.886 -0.431)" fill="#e8eeff" stroke="rgba(255,255,255,0.12)" stroke-width="0.1" opacity="0.54" style="mix-blend-mode: multiply;isolation: isolate"/>
      </g>
      <path id="Path_184583" data-name="Path 184583" d="M32.562,22.408l.6-.361a3.517,3.517,0,0,1,3.621,0l.6.361a3.517,3.517,0,0,0,3.621,0l1.7-.757c.25-.7.424-1.2.493-1.426a58.9,58.9,0,0,0,2.75-15.848c.056-2.157-1.728-5.521-4.691-3.992-2.913,1.5-5,7.261-6.465,10a59.575,59.575,0,0,0-4.9,12.418A3.513,3.513,0,0,0,32.562,22.408Z" transform="translate(-9.638 0.001)" fill="#eeaf4b"/>
      <path id="Path_184599" data-name="Path 184599" d="M32.562,22.408l.6-.361a3.517,3.517,0,0,1,3.621,0l.6.361a3.517,3.517,0,0,0,3.621,0l1.7-.757c.25-.7.424-1.2.493-1.426a58.9,58.9,0,0,0,2.75-15.848c.056-2.157-1.728-5.521-4.691-3.992-2.913,1.5-5,7.261-6.465,10a59.575,59.575,0,0,0-4.9,12.418A3.513,3.513,0,0,0,32.562,22.408Z" transform="translate(-9.638 0.001)" fill="#e8eeff" stroke="rgba(255,255,255,0.12)" stroke-width="0.1" opacity="0.54" style="mix-blend-mode: multiply;isolation: isolate"/>
      <path id="Path_184584" data-name="Path 184584" d="M6.878,24.1l1.136.682a4.12,4.12,0,0,0,4.24,0l.292-.176a3.517,3.517,0,0,1,3.621,0l.6.361a3.512,3.512,0,0,0,2.138.48,7.287,7.287,0,0,0-.479-5.405c-2.817-4.97-5.161-3.958-7.416-1.8a3.694,3.694,0,0,1-1.537.882c-2.473.707-4.3,1.863-3.26,5.012A.6.6,0,0,1,6.878,24.1Z" transform="translate(-5.911 -2.558)" fill="#ed3f32"/>
      <path id="Path_184597" data-name="Path 184597" d="M6.878,24.1l1.136.682a4.12,4.12,0,0,0,4.24,0l.292-.176a3.517,3.517,0,0,1,3.621,0l.6.361a3.512,3.512,0,0,0,2.138.48,7.287,7.287,0,0,0-.479-5.405c-2.817-4.97-5.161-3.958-7.416-1.8a3.694,3.694,0,0,1-1.537.882c-2.473.707-4.3,1.863-3.26,5.012A.6.6,0,0,1,6.878,24.1Z" transform="translate(-5.911 -2.558)" fill="#e8eeff" stroke="rgba(255,255,255,0.12)" stroke-width="0.1" opacity="0.54" style="mix-blend-mode: multiply;isolation: isolate"/>
      <path id="Path_184585" data-name="Path 184585" d="M35.176,22.086a.583.583,0,0,1-.552-.772,2.2,2.2,0,0,1,2.783-1.373,1.028,1.028,0,0,0,1.3-.642.584.584,0,1,1,1.106.375,2.2,2.2,0,0,1-2.783,1.373,1.029,1.029,0,0,0-1.3.642A.585.585,0,0,1,35.176,22.086Z" transform="translate(-8.73 -3.968)" fill="#fff"/>
      <path id="Path_184586" data-name="Path 184586" d="M37.541,15.118a.583.583,0,0,1-.552-.772,2.194,2.194,0,0,1,2.783-1.373,1.026,1.026,0,0,0,1.3-.643.583.583,0,1,1,1.1.375A2.2,2.2,0,0,1,39.4,14.08a1.026,1.026,0,0,0-1.3.642A.583.583,0,0,1,37.541,15.118Z" transform="translate(-8.853 -2.169)" fill="#fff"/>
      <path id="Path_184587" data-name="Path 184587" d="M39.906,8.391a.59.59,0,0,1-.188-.031.584.584,0,0,1-.365-.741,1.93,1.93,0,0,1,2.443-1.2.757.757,0,0,0,.963-.473.584.584,0,1,1,1.106.375,1.925,1.925,0,0,1-2.443,1.2A.759.759,0,0,0,40.459,8,.585.585,0,0,1,39.906,8.391Z" transform="translate(-9.837 0.092)" fill="#fff"/>
      <g id="Group_101046" data-name="Group 101046" transform="translate(13.065 6.759)">
        <path id="Path_184588" data-name="Path 184588" d="M23.061,13.148c-.8,1.062-2.057,2.318-1.573,4.538l1.3,5.967h0l.6-.361a3.517,3.517,0,0,1,3.621,0l.6.361a3.443,3.443,0,0,0,.952.391A60.854,60.854,0,0,1,31.992,14.6c-.654-1.635-2.05-2.182-3.063-2.742l-.017-.009a1.178,1.178,0,0,1-.2-1.8.956.956,0,0,0,.212-.828l-.1-.466a.957.957,0,0,0-1.137-.729l-5.132,1.12a.957.957,0,0,0-.729,1.137l.1.466a.948.948,0,0,0,.554.669,1.164,1.164,0,0,1,.686,1.567A1.307,1.307,0,0,1,23.061,13.148Z" transform="translate(-21.38 -8.002)" fill="#dae7ef"/>
        <path id="Path_184600" data-name="Path 184600" d="M23.061,13.148c-.8,1.062-2.057,2.318-1.573,4.538l1.3,5.967h0l.6-.361a3.517,3.517,0,0,1,3.621,0l.6.361a3.443,3.443,0,0,0,.952.391A60.854,60.854,0,0,1,31.992,14.6c-.654-1.635-2.05-2.182-3.063-2.742l-.017-.009a1.178,1.178,0,0,1-.2-1.8.956.956,0,0,0,.212-.828l-.1-.466a.957.957,0,0,0-1.137-.729l-5.132,1.12a.957.957,0,0,0-.729,1.137l.1.466a.948.948,0,0,0,.554.669,1.164,1.164,0,0,1,.686,1.567A1.307,1.307,0,0,1,23.061,13.148Z" transform="translate(-21.38 -8.002)" fill="#e8eeff" stroke="rgba(255,255,255,0.12)" stroke-width="0.1" opacity="0.54" style="mix-blend-mode: multiply;isolation: isolate"/>
      </g>
      <path id="Path_184589" data-name="Path 184589" d="M28.395,10.394l-5.81,1.269a1.2,1.2,0,0,1-1.421-.911l-.084-.382a1.2,1.2,0,0,1,.911-1.421L27.8,7.68a1.2,1.2,0,0,1,1.421.911l.084.382A1.2,1.2,0,0,1,28.395,10.394Z" transform="translate(-8.264 -1.189)" fill="#fff"/>
      <path id="Path_184595" data-name="Path 184595" d="M40.457,25.28,38.983,46.419a3.968,3.968,0,0,1-3.963,3.766H11.313a3.968,3.968,0,0,1-3.963-3.766L5.911,25.974a.6.6,0,0,1,.91-.546l1.136.682a4.12,4.12,0,0,0,4.24,0l.292-.176a3.517,3.517,0,0,1,3.621,0l.6.361a3.517,3.517,0,0,0,3.621,0l.6-.361a3.517,3.517,0,0,1,3.621,0l.6.361a3.517,3.517,0,0,0,3.621,0l.6-.361a3.517,3.517,0,0,1,3.621,0l.6.361a3.517,3.517,0,0,0,3.621,0l2.86-1.271A.266.266,0,0,1,40.457,25.28Z" transform="translate(-5.91 -3.886)" fill="#f5b662" opacity="0.61" style="mix-blend-mode: multiply;isolation: isolate"/>
      <path id="Path_184601" data-name="Path 184601" d="M40.457,25.28,38.983,46.419a3.968,3.968,0,0,1-3.963,3.766H11.313a3.968,3.968,0,0,1-3.963-3.766L5.911,25.974a.6.6,0,0,1,.91-.546l1.136.682a4.12,4.12,0,0,0,4.24,0l.292-.176a3.517,3.517,0,0,1,3.621,0l.6.361a3.517,3.517,0,0,0,3.621,0l.6-.361a3.517,3.517,0,0,1,3.621,0l.6.361a3.517,3.517,0,0,0,3.621,0l.6-.361a3.517,3.517,0,0,1,3.621,0l.6.361a3.517,3.517,0,0,0,3.621,0l2.86-1.271A.266.266,0,0,1,40.457,25.28Z" transform="translate(-5.91 -3.81)" fill="#e8eeff" stroke="rgba(255,255,255,0.12)" stroke-width="0.1" style="mix-blend-mode: multiply;isolation: isolate"/>
      <path id="Path_184596" data-name="Path 184596" d="M40.457,25.28,38.983,46.419a3.968,3.968,0,0,1-3.963,3.766H11.313a3.968,3.968,0,0,1-3.963-3.766L5.911,25.974a.6.6,0,0,1,.91-.546l1.136.682a4.12,4.12,0,0,0,4.24,0l.292-.176a3.517,3.517,0,0,1,3.621,0l.6.361a3.517,3.517,0,0,0,3.621,0l.6-.361a3.517,3.517,0,0,1,3.621,0l.6.361a3.517,3.517,0,0,0,3.621,0l.6-.361a3.517,3.517,0,0,1,3.621,0l.6.361a3.517,3.517,0,0,0,3.621,0l2.86-1.271A.266.266,0,0,1,40.457,25.28Z" transform="translate(-5.91 -3.886)" fill="none" stroke="#fff" stroke-width="0.2" opacity="0.51"/>
      <path id="Path_184591" data-name="Path 184591" d="M16.666,41.689H10.755a.845.845,0,0,1,0-1.689h5.912a.845.845,0,0,1,0,1.689Z" transform="translate(-6.532 -6.217)" fill="#fff"/>
      <path id="Path_184592" data-name="Path 184592" d="M18.355,45.689h-7.6a.845.845,0,0,1,0-1.689h7.6a.845.845,0,0,1,0,1.689Z" transform="translate(-6.532 -6.839)" fill="#fff"/>
      <path id="Path_184593" data-name="Path 184593" d="M20.045,49.689h-9.29a.845.845,0,0,1,0-1.689h9.29a.845.845,0,0,1,0,1.689Z" transform="translate(-6.532 -7.461)" fill="#fff"/>
      <path id="Path_184594" data-name="Path 184594" d="M27.444,49.689H25.755a.845.845,0,0,1,0-1.689h1.689a.845.845,0,0,1,0,1.689Z" transform="translate(-8.864 -7.461)" fill="#fff"/>
      <path id="Path_184644" data-name="Path 184644" d="M249.956,40.668l.623,1.139,1.139.623-1.139.623-.623,1.139-.623-1.139-1.139-.623,1.139-.623Z" transform="translate(-211.879 -10.409)" fill="#aa9c89"/>
      <path id="Path_184645" data-name="Path 184645" d="M249.956,40.668l.623,1.139,1.139.623-1.139.623-.623,1.139-.623-1.139-1.139-.623,1.139-.623Z" transform="translate(-244.63 -15.041)" fill="#fff"/>
    </g>
  </g>
</svg>
