<svg xmlns="http://www.w3.org/2000/svg" xmlns:xlink="http://www.w3.org/1999/xlink" width="323.068" height="323.068" viewBox="0 0 323.068 323.068">
  <defs>
    <linearGradient id="linear-gradient" x1="-0.512" y1="1" x2="-0.47" y2="1" gradientUnits="objectBoundingBox">
      <stop offset="0" stop-color="#0a80fd"/>
      <stop offset="1" stop-color="#56c5fa"/>
    </linearGradient>
    <filter id="Ellipse_812" x="0" y="0" width="323.068" height="323.068" filterUnits="userSpaceOnUse">
      <feOffset dy="25" input="SourceAlpha"/>
      <feGaussianBlur stdDeviation="30.5" result="blur"/>
      <feFlood flood-color="#ffcd00" result="color"/>
      <feComposite operator="out" in="SourceGraphic" in2="blur"/>
      <feComposite operator="in" in="color"/>
      <feComposite operator="in" in2="SourceGraphic"/>
    </filter>
  </defs>
  <g id="Group_101103" data-name="Group 101103" transform="translate(1818.862 3104.841)">
    <path id="Path_184659" data-name="Path 184659" d="M250.611,40.668l.855,1.563,1.563.855-1.563.855-.855,1.563-.855-1.563-1.563-.855,1.563-.855Z" transform="translate(-1924.966 -2990.041)" fill="#fff"/>
    <g id="Group_101099" data-name="Group 101099" transform="translate(-1690.851 -2960.735)">
      <g id="Group_101102" data-name="Group 101102" transform="translate(0 0)">
        <path id="Union_9" data-name="Union 9" d="M.418,53.882c-.553-.439-.561-1.122-.005-1.818q2.9-3.634,5.806-7.263c.492-.615.984-1.232,1.571-1.969-.8,0-1.48.02-2.155,0a5.614,5.614,0,0,1-5.274-4.4,13.392,13.392,0,0,1,0-3.634c.183-3.763.41-7.527.618-11.29.046-.847.046-.86.879-.672a18.435,18.435,0,0,1,5,2.079,65.693,65.693,0,0,1,11.171,8.3c.905.809,1.323.808,2.22.007a66.079,66.079,0,0,1,11.17-8.3,19.022,19.022,0,0,1,5.252-2.155c.44-.1.61-.049.635.457.167,3.43.363,6.859.552,10.288q.088,1.584.184,3.166a5.652,5.652,0,0,1-4.738,6.1,9.47,9.47,0,0,1-1.654.074c-.36,0-.731-.008-1.122.011.268.339.47.6.674.853q3.319,4.146,6.637,8.29a2,2,0,0,1,.425.723,1.12,1.12,0,0,1-.514,1.227,1.03,1.03,0,0,1-1.35-.174c-.449-.494-.864-1.021-1.268-1.555a.794.794,0,0,0-.7-.352q-15.273.012-30.548,0a.775.775,0,0,0-.71.34c-.309.427-.652.831-.984,1.242a1.5,1.5,0,0,1-1.112.673A1.048,1.048,0,0,1,.418,53.882ZM7,47.447c-.558.689-1.112,1.382-1.711,2.128H33c-.589-.737-1.127-1.4-1.655-2.077-.121-.153-.273-.134-.429-.134q-11.759,0-23.52,0c-.057,0-.117-.008-.175-.008A.258.258,0,0,0,7,47.447ZM10.554,43c-.535.67-1.073,1.337-1.666,2.076H29.4c-.6-.741-1.134-1.41-1.67-2.08a.531.531,0,0,0-.481-.151H10.985A.484.484,0,0,0,10.554,43ZM4.486,34.955a3.375,3.375,0,1,0,6.75.006A3.36,3.36,0,0,0,7.9,31.591H7.866A3.394,3.394,0,0,0,4.486,34.955Zm22.567-.02a3.375,3.375,0,1,0,3.366-3.345A3.39,3.39,0,0,0,27.052,34.934Zm3.365,1.131a1.129,1.129,0,0,1-1.116-1.1,1.153,1.153,0,0,1,1.151-1.126,1.125,1.125,0,0,1,1.076,1.135,1.1,1.1,0,0,1-1.1,1.09Zm-22.556,0a1.1,1.1,0,0,1-1.1-1.1A1.124,1.124,0,0,1,7.85,33.839a1.152,1.152,0,0,1,1.136,1.139,1.127,1.127,0,0,1-1.12,1.087Zm10.794-5.3A58.934,58.934,0,0,0,6.608,22.253,16.908,16.908,0,0,0,1.6,20.5c-.351-.056-.45-.2-.428-.553.257-4.307.467-8.618.759-12.924A7.846,7.846,0,0,1,8.492.109c.137-.02.285,0,.4-.109H29.4a9.842,9.842,0,0,1,3.112,1.086,7.613,7.613,0,0,1,3.862,6.2c.285,4.2.492,8.406.736,12.608.018.3.033.528-.368.593a19.484,19.484,0,0,0-6.414,2.48,62.291,62.291,0,0,0-10.693,7.8.781.781,0,0,1-.489.257A.79.79,0,0,1,18.655,30.762Z" stroke="rgba(0,0,0,0)" stroke-width="1" fill="url(#linear-gradient)"/>
        <path id="Union_10" data-name="Union 10" d="M.418,53.882c-.553-.439-.561-1.122-.005-1.818q2.9-3.634,5.806-7.263c.492-.615.984-1.232,1.571-1.969-.8,0-1.48.02-2.155,0a5.614,5.614,0,0,1-5.274-4.4,13.392,13.392,0,0,1,0-3.634c.183-3.763.41-7.527.618-11.29.046-.847.046-.86.879-.672a18.435,18.435,0,0,1,5,2.079,65.693,65.693,0,0,1,11.171,8.3c.905.809,1.323.808,2.22.007a66.079,66.079,0,0,1,11.17-8.3,19.022,19.022,0,0,1,5.252-2.155c.44-.1.61-.049.635.457.167,3.43.363,6.859.552,10.288q.088,1.584.184,3.166a5.652,5.652,0,0,1-4.738,6.1,9.47,9.47,0,0,1-1.654.074c-.36,0-.731-.008-1.122.011.268.339.47.6.674.853q3.319,4.146,6.637,8.29a2,2,0,0,1,.425.723,1.12,1.12,0,0,1-.514,1.227,1.03,1.03,0,0,1-1.35-.174c-.449-.494-.864-1.021-1.268-1.555a.794.794,0,0,0-.7-.352q-15.273.012-30.548,0a.775.775,0,0,0-.71.34c-.309.427-.652.831-.984,1.242a1.5,1.5,0,0,1-1.112.673A1.048,1.048,0,0,1,.418,53.882ZM7,47.447c-.558.689-1.112,1.382-1.711,2.128H33c-.589-.737-1.127-1.4-1.655-2.077-.121-.153-.273-.134-.429-.134q-11.759,0-23.52,0c-.057,0-.117-.008-.175-.008A.258.258,0,0,0,7,47.447ZM10.554,43c-.535.67-1.073,1.337-1.666,2.076H29.4c-.6-.741-1.134-1.41-1.67-2.08a.531.531,0,0,0-.481-.151H10.985A.484.484,0,0,0,10.554,43ZM4.486,34.955a3.375,3.375,0,1,0,6.75.006A3.36,3.36,0,0,0,7.9,31.591H7.866A3.394,3.394,0,0,0,4.486,34.955Zm22.567-.02a3.375,3.375,0,1,0,3.366-3.345A3.39,3.39,0,0,0,27.052,34.934Zm3.365,1.131a1.129,1.129,0,0,1-1.116-1.1,1.153,1.153,0,0,1,1.151-1.126,1.125,1.125,0,0,1,1.076,1.135,1.1,1.1,0,0,1-1.1,1.09Zm-22.556,0a1.1,1.1,0,0,1-1.1-1.1A1.124,1.124,0,0,1,7.85,33.839a1.152,1.152,0,0,1,1.136,1.139,1.127,1.127,0,0,1-1.12,1.087Zm10.794-5.3A58.934,58.934,0,0,0,6.608,22.253,16.908,16.908,0,0,0,1.6,20.5c-.351-.056-.45-.2-.428-.553.257-4.307.467-8.618.759-12.924A7.846,7.846,0,0,1,8.492.109c.137-.02.285,0,.4-.109H29.4a9.842,9.842,0,0,1,3.112,1.086,7.613,7.613,0,0,1,3.862,6.2c.285,4.2.492,8.406.736,12.608.018.3.033.528-.368.593a19.484,19.484,0,0,0-6.414,2.48,62.291,62.291,0,0,0-10.693,7.8.781.781,0,0,1-.489.257A.79.79,0,0,1,18.655,30.762Z" stroke="rgba(0,0,0,0)" stroke-width="1" fill="url(#linear-gradient)"/>
        <path id="Path_184672" data-name="Path 184672" d="M54.773,61.071q0,1.77,0,3.54c0,1.038-.3,1.393-1.34,1.512-2.289.265-4.583.511-6.873.765-.875.1-1.75.187-2.623.294-1.012.123-1.556-.331-1.558-1.345q-.008-3.7,0-7.4a1.194,1.194,0,0,1,1.239-1.386q4.828-.538,9.656-1.07c1-.11,1.491.326,1.5,1.336.008,1.25,0,2.5,0,3.751" transform="translate(-36.765 -48.557)" fill="#fff"/>
      </g>
    </g>
    <g id="Group_101100" data-name="Group 101100" transform="translate(-1668.863 -2957.305)">
      <path id="Path_184539" data-name="Path 184539" d="M249.931,40.668l.614,1.123,1.123.614-1.123.614-.614,1.123-.614-1.123-1.123-.614,1.123-.614Z" transform="translate(-248.194 -40.668)" fill="#fff"/>
      <path id="Path_184540" data-name="Path 184540" d="M249.931,40.668l.614,1.123,1.123.614-1.123.614-.614,1.123-.614-1.123-1.123-.614,1.123-.614Z" transform="translate(-225.955 -20.802)" fill="#5dc4ed"/>
      <g id="Group_101025" data-name="Group 101025" transform="translate(0 2.463)">
        <g id="Group_101025-2" data-name="Group 101025">
          <ellipse id="Ellipse_810" data-name="Ellipse 810" cx="11.534" cy="11.534" rx="11.534" ry="11.534" fill="none" stroke="#fff" stroke-width="0.144" opacity="0.51"/>
          <ellipse id="Ellipse_811" data-name="Ellipse 811" cx="11.534" cy="11.534" rx="11.534" ry="11.534" fill="#e8eeff" stroke="rgba(255,255,255,0.12)" stroke-width="0.144" style="mix-blend-mode: multiply;isolation: isolate"/>
          <g data-type="innerShadowGroup">
            <ellipse id="Ellipse_812-2" data-name="Ellipse 812" cx="11.534" cy="11.534" rx="11.534" ry="11.534" fill="#ffbb62"/>
            <g transform="matrix(1, 0, 0, 1, -150, -150)" filter="url(#Ellipse_812)">
              <ellipse id="Ellipse_812-3" data-name="Ellipse 812" cx="11.534" cy="11.534" rx="11.534" ry="11.534" transform="translate(150 150)" fill="#fff"/>
            </g>
          </g>
        </g>
        <path id="Path_184538" data-name="Path 184538" d="M100.171,82.284a1.977,1.977,0,0,1,.348.767c.013.059.055.042.089.042h.84c.169,0,.227.058.227.226s0,.309,0,.464c0,.2-.051.25-.247.25-.265,0-.531,0-.8,0-.061,0-.088.013-.1.081a2.213,2.213,0,0,1-1.683,1.744,3.573,3.573,0,0,1-.487.1c-.025,0-.06-.007-.072.02s.023.043.039.061c.529.571,1.036,1.162,1.536,1.759.326.389.646.782.97,1.173a.181.181,0,0,1,.041.215.188.188,0,0,1-.2.1c-.318,0-.636-.007-.953,0a.377.377,0,0,1-.334-.156c-.781-.943-1.576-1.874-2.4-2.778-.1-.112-.2-.224-.31-.333a.244.244,0,0,1-.074-.18c0-.222,0-.443,0-.665a.182.182,0,0,1,.2-.2c.321,0,.642.012.962-.016a2.105,2.105,0,0,0,.923-.27,1.091,1.091,0,0,0,.474-.565c.035-.095.036-.095-.065-.095H96.853c-.194,0-.247-.054-.248-.25,0-.157,0-.315,0-.472s.061-.216.218-.216h2.2c.025,0,.063,0,.074-.009s-.012-.053-.027-.075a1.17,1.17,0,0,0-.748-.476,2.817,2.817,0,0,0-.685-.074h-.8c-.165,0-.233-.068-.233-.234,0-.222,0-.443,0-.665,0-.154.065-.216.22-.216h4.61c.169,0,.225.057.225.227s0,.327,0,.49-.058.223-.219.223h-1.271" transform="translate(-87.559 -73.784)" fill="#fff"/>
        <ellipse id="Ellipse_813" data-name="Ellipse 813" cx="9.471" cy="9.471" rx="9.471" ry="9.471" transform="translate(2.093 1.927)" fill="none" stroke="#fff" stroke-width="0.293"/>
      </g>
    </g>
  </g>
</svg>
