<svg xmlns="http://www.w3.org/2000/svg" xmlns:xlink="http://www.w3.org/1999/xlink" width="79.637" height="16" viewBox="0 0 79.637 16">
  <defs>
    <linearGradient id="linear-gradient" x1="0.054" y1="0.268" x2="1" y2="0.5" gradientUnits="objectBoundingBox">
      <stop offset="0" stop-color="#293897"/>
      <stop offset="1" stop-color="#ec1c23"/>
    </linearGradient>
  </defs>
  <path id="Path_184248" data-name="Path 184248" d="M-27.237,3.947a2.455,2.455,0,0,1-1.717-.48,1.875,1.875,0,0,1-.5-1.419q0-.277.032-.885t.1-1.44q.064-.832.139-1.813t.16-2.005q.107-1.259.181-2.165t.117-1.557q.043-.651.075-1.088t.043-.768q.011-.331.021-.608t.011-.6a.278.278,0,0,1,.107-.245.37.37,0,0,1,.213-.075q.555,0,1.216-.032t1.323-.075q.661-.043,1.28-.075t1.088-.032a7.382,7.382,0,0,1,2.347.331,3.891,3.891,0,0,1,1.589.96,3.857,3.857,0,0,1,.9,1.525,6.688,6.688,0,0,1,.288,2.048,8.809,8.809,0,0,1-.331,2.421A5.911,5.911,0,0,1-19.6-2.069,5.04,5.04,0,0,1-21.413-.64a6.053,6.053,0,0,1-2.645.533A5.477,5.477,0,0,1-25.616-.3l-.3,3.925A.469.469,0,0,1-26,3.872a.333.333,0,0,1-.256.075Zm3.456-12.16q-.277,0-.619.032t-.725.075q-.043.9-.107,2.176T-25.4-3.243a4.065,4.065,0,0,0,.629.117,5.531,5.531,0,0,0,.565.032A1.927,1.927,0,0,0-23-3.445a2.467,2.467,0,0,0,.715-.864,3.594,3.594,0,0,0,.341-1.067,6.438,6.438,0,0,0,.085-.96,2.075,2.075,0,0,0-.416-1.4A1.924,1.924,0,0,0-23.781-8.213Zm13.547,5.525q-.128,0-.288-.011a2.16,2.16,0,0,1-.309-.043,1.08,1.08,0,0,1-.256-.085.158.158,0,0,1-.107-.139q0-.277.021-.512t.021-.491a1.966,1.966,0,0,0-.128-.768.5.5,0,0,0-.512-.3q-.6,0-.992.779a6.334,6.334,0,0,0-.5,2.336q-.043.683-.117,1.547t-.139,1.664q-.064.8-.107,1.419t-.043.811a.367.367,0,0,1-.149.32.54.54,0,0,1-.32.107h-.768a3.478,3.478,0,0,1-1.077-.139,1.594,1.594,0,0,1-.661-.395,1.392,1.392,0,0,1-.341-.629,3.487,3.487,0,0,1-.1-.864q0-.32.032-.907t.117-1.621q.085-1.035.2-2.624t.288-3.936q.043-.619.448-.619h.832a3.371,3.371,0,0,1,1,.128,1.825,1.825,0,0,1,.661.352,1.34,1.34,0,0,1,.373.523,2.64,2.64,0,0,1,.16.619,3.413,3.413,0,0,1,.608-.843,3.636,3.636,0,0,1,.736-.576,2.879,2.879,0,0,1,.789-.32,3.258,3.258,0,0,1,.747-.1,2.42,2.42,0,0,1,.821.149,2.345,2.345,0,0,1,.757.448,2.116,2.116,0,0,1,.544.768,2.784,2.784,0,0,1,.2,1.109,3.418,3.418,0,0,1-.171,1.088,2.862,2.862,0,0,1-.491.907,2.277,2.277,0,0,1-.779.619A2.278,2.278,0,0,1-10.235-2.688Zm2.6,4.011A3.384,3.384,0,0,1-5.9-1.685a10.17,10.17,0,0,1,5.1-1.173q.021-.235.032-.395t.011-.395a2.019,2.019,0,0,0-.256-1.088,1.176,1.176,0,0,0-1.067-.405,1.745,1.745,0,0,0-.725.128,1.165,1.165,0,0,0-.448.352,1.861,1.861,0,0,0-.277.544,7.109,7.109,0,0,0-.192.7.306.306,0,0,1-.192.245,1.507,1.507,0,0,1-.469.053q-2.176,0-2.176-1.643a2.7,2.7,0,0,1,.309-1.259,2.939,2.939,0,0,1,.917-1.035,4.808,4.808,0,0,1,1.525-.693A7.972,7.972,0,0,1-1.68-8a4.98,4.98,0,0,1,3.435.981A3.58,3.58,0,0,1,2.821-4.245q0,.235-.053.843T2.64-2.123q-.075.672-.128,1.269t-.053.832a1.168,1.168,0,0,0,.192.757,1.013,1.013,0,0,0,.437.309,3.982,3.982,0,0,0,.437.128.208.208,0,0,1,.192.213,3.794,3.794,0,0,1-.128.96,2.718,2.718,0,0,1-.416.9,2.138,2.138,0,0,1-.789.661,2.675,2.675,0,0,1-1.227.256A2.143,2.143,0,0,1-.379,3.669,2.493,2.493,0,0,1-1.061,2.3a4.952,4.952,0,0,1-1.333,1.3,3.762,3.762,0,0,1-2.144.555,4.7,4.7,0,0,1-1.205-.149,2.552,2.552,0,0,1-.981-.491,2.4,2.4,0,0,1-.661-.885A3.177,3.177,0,0,1-7.632,1.323ZM-1-1.109a6.876,6.876,0,0,0-1.088.085,3.924,3.924,0,0,0-.949.267,1.83,1.83,0,0,0-.672.48,1.077,1.077,0,0,0-.256.725.739.739,0,0,0,.309.683,1.251,1.251,0,0,0,.672.192A1.691,1.691,0,0,0-2.3,1.173,1.7,1.7,0,0,0-1.691.715a2.9,2.9,0,0,0,.459-.757A3.278,3.278,0,0,0-1-1.109ZM10.395,1.323a3.086,3.086,0,0,0,1.077-.171,4.413,4.413,0,0,0,.8-.384q.341-.213.576-.384a.749.749,0,0,1,.427-.171q.491,0,.491.64a1.913,1.913,0,0,1-.064.416,4.881,4.881,0,0,1-.171.555q-.107.288-.224.544a1.764,1.764,0,0,1-.224.384q-.107.107-.373.341a3.656,3.656,0,0,1-.715.469,6.037,6.037,0,0,1-1.045.416,4.541,4.541,0,0,1-1.323.181,6.12,6.12,0,0,1-1.675-.245,4.083,4.083,0,0,1-1.568-.853A4.577,4.577,0,0,1,5.221,1.419a6.409,6.409,0,0,1-.459-2.592,12.366,12.366,0,0,1,.075-1.269,7.667,7.667,0,0,1,.309-1.472,8.45,8.45,0,0,1,.629-1.493A4.642,4.642,0,0,1,6.832-6.72a5.2,5.2,0,0,1,1.589-.928A6.226,6.226,0,0,1,10.629-8a5.877,5.877,0,0,1,1.8.245,3.642,3.642,0,0,1,1.248.661,2.691,2.691,0,0,1,.736.971,2.92,2.92,0,0,1,.245,1.195,1.982,1.982,0,0,1-.725,1.7,3.357,3.357,0,0,1-2.048.544,1.2,1.2,0,0,1-.437-.053q-.117-.053-.117-.245,0-.512-.021-.917a2.513,2.513,0,0,0-.117-.683.893.893,0,0,0-.288-.427.889.889,0,0,0-.555-.149A1.369,1.369,0,0,0,9.3-4.736,2.808,2.808,0,0,0,8.7-3.7a5.333,5.333,0,0,0-.256,1.248q-.053.64-.053,1.067A3.467,3.467,0,0,0,8.869.725,1.841,1.841,0,0,0,10.395,1.323ZM22.939,1.3Q23,.6,23.077-.171t.128-1.472q.053-.7.1-1.259t.043-.811a1.867,1.867,0,0,0-.267-.992,1.114,1.114,0,0,0-1.035-.437,1.9,1.9,0,0,0-1.653.96,5.269,5.269,0,0,0-.736,2.56q-.043.448-.107,1.248t-.128,1.621q-.064.821-.117,1.472t-.053.8a.455.455,0,0,1-.1.341.585.585,0,0,1-.373.085h-.768a3.478,3.478,0,0,1-1.077-.139,1.594,1.594,0,0,1-.661-.395,1.392,1.392,0,0,1-.341-.629,3.487,3.487,0,0,1-.1-.864q0-.469.075-1.312t.2-2.325q.128-1.483.3-3.787t.363-5.717a1.076,1.076,0,0,1,.107-.555.557.557,0,0,1,.341-.064h.832a3.265,3.265,0,0,1,1.067.149,1.779,1.779,0,0,1,.683.405,1.451,1.451,0,0,1,.363.587,2.244,2.244,0,0,1,.107.693q0,.384-.075,1.429t-.181,2.453a3.779,3.779,0,0,1,1.419-1.472A4.254,4.254,0,0,1,23.408-8a5.617,5.617,0,0,1,1.557.192,2.414,2.414,0,0,1,1.1.651,2.844,2.844,0,0,1,.651,1.195,6.651,6.651,0,0,1,.213,1.824q0,.341-.064,1.173t-.16,1.9q-.1,1.067-.192,2.229t-.16,2.123q-.021.235-.043.363a.4.4,0,0,1-.075.192.269.269,0,0,1-.16.085,1.61,1.61,0,0,1-.3.021h-.683a3.958,3.958,0,0,1-1.109-.128,1.545,1.545,0,0,1-.661-.363,1.292,1.292,0,0,1-.331-.587,3.046,3.046,0,0,1-.1-.8q0-.213.011-.405T22.939,1.3Zm5.248.021a3.384,3.384,0,0,1,1.728-3.008,10.17,10.17,0,0,1,5.1-1.173q.021-.235.032-.395t.011-.395A2.019,2.019,0,0,0,34.8-4.736a1.176,1.176,0,0,0-1.067-.405,1.745,1.745,0,0,0-.725.128,1.165,1.165,0,0,0-.448.352,1.861,1.861,0,0,0-.277.544,7.107,7.107,0,0,0-.192.7.306.306,0,0,1-.192.245,1.507,1.507,0,0,1-.469.053q-2.176,0-2.176-1.643a2.7,2.7,0,0,1,.309-1.259,2.939,2.939,0,0,1,.917-1.035,4.808,4.808,0,0,1,1.525-.693A7.972,7.972,0,0,1,34.139-8a4.98,4.98,0,0,1,3.435.981A3.58,3.58,0,0,1,38.64-4.245q0,.235-.053.843t-.128,1.28q-.075.672-.128,1.269t-.053.832a1.168,1.168,0,0,0,.192.757,1.013,1.013,0,0,0,.437.309,3.982,3.982,0,0,0,.437.128.208.208,0,0,1,.192.213,3.8,3.8,0,0,1-.128.96,2.717,2.717,0,0,1-.416.9A2.138,2.138,0,0,1,38.2,3.9a2.675,2.675,0,0,1-1.227.256,2.143,2.143,0,0,1-1.536-.491A2.493,2.493,0,0,1,34.757,2.3a4.952,4.952,0,0,1-1.333,1.3,3.762,3.762,0,0,1-2.144.555,4.7,4.7,0,0,1-1.205-.149,2.552,2.552,0,0,1-.981-.491,2.4,2.4,0,0,1-.661-.885A3.177,3.177,0,0,1,28.187,1.323Zm6.635-2.432a6.876,6.876,0,0,0-1.088.085,3.924,3.924,0,0,0-.949.267,1.83,1.83,0,0,0-.672.48,1.077,1.077,0,0,0-.256.725.739.739,0,0,0,.309.683,1.251,1.251,0,0,0,.672.192,1.691,1.691,0,0,0,.683-.149,1.7,1.7,0,0,0,.608-.459,2.9,2.9,0,0,0,.459-.757A3.278,3.278,0,0,0,34.821-1.109ZM47.728-2.688q-.128,0-.288-.011a2.161,2.161,0,0,1-.309-.043,1.08,1.08,0,0,1-.256-.085.158.158,0,0,1-.107-.139q0-.277.021-.512t.021-.491a1.966,1.966,0,0,0-.128-.768.5.5,0,0,0-.512-.3q-.6,0-.992.779a6.334,6.334,0,0,0-.5,2.336q-.043.683-.117,1.547t-.139,1.664q-.064.8-.107,1.419t-.043.811a.367.367,0,0,1-.149.32.54.54,0,0,1-.32.107h-.768a3.478,3.478,0,0,1-1.077-.139,1.594,1.594,0,0,1-.661-.395,1.392,1.392,0,0,1-.341-.629,3.487,3.487,0,0,1-.1-.864q0-.32.032-.907t.117-1.621q.085-1.035.2-2.624T41.5-7.168q.043-.619.448-.619h.832a3.371,3.371,0,0,1,1,.128,1.825,1.825,0,0,1,.661.352,1.34,1.34,0,0,1,.373.523,2.64,2.64,0,0,1,.16.619,3.413,3.413,0,0,1,.608-.843,3.636,3.636,0,0,1,.736-.576,2.879,2.879,0,0,1,.789-.32,3.258,3.258,0,0,1,.747-.1,2.42,2.42,0,0,1,.821.149,2.345,2.345,0,0,1,.757.448,2.116,2.116,0,0,1,.544.768,2.784,2.784,0,0,1,.2,1.109,3.418,3.418,0,0,1-.171,1.088,2.862,2.862,0,0,1-.491.907,2.277,2.277,0,0,1-.779.619A2.278,2.278,0,0,1,47.728-2.688Z" transform="translate(29.456 11.84)" fill="url(#linear-gradient)"/>
</svg>
