<svg xmlns="http://www.w3.org/2000/svg" xmlns:xlink="http://www.w3.org/1999/xlink" width="47.261" height="54.958" viewBox="0 0 47.261 54.958">
  <defs>
    <linearGradient id="linear-gradient" y1="0.5" x2="1" y2="0.5" gradientUnits="objectBoundingBox">
      <stop offset="0" stop-color="#ec517f"/>
      <stop offset="1" stop-color="#b85633"/>
    </linearGradient>
  </defs>
  <g id="Group_101113" data-name="Group 101113" transform="matrix(0.985, 0.174, -0.174, 0.985, 6.177, 0.09)">
    <g id="Group_101110" data-name="Group 101110" transform="translate(0)">
      <path id="Path_184716" data-name="Path 184716" d="M18.981,0a5.762,5.762,0,0,0,1.373.244A17.192,17.192,0,0,1,33.285,9.9,16.856,16.856,0,0,1,34.791,20.5a17.294,17.294,0,0,1-3.255,7.573c-.111.155-.288.288-.288.509-.8.642-1.373,1.506-2.17,2.148-.177.133-.421.266-.487.509-.177-.022-.288.111-.4.2a16.662,16.662,0,0,1-6.953,3.211,17.226,17.226,0,0,1-10.983-1.2A17.381,17.381,0,0,1,2.174,26,17.16,17.16,0,0,1,.027,16.585,17.145,17.145,0,0,1,2.839,7.994,17.661,17.661,0,0,1,15.571.111c.089-.022.221.044.266-.111ZM17.586,1.926a15.612,15.612,0,0,0-15.677,15.5,15.262,15.262,0,0,0,4.65,11.226,14.873,14.873,0,0,0,11,4.517A15.555,15.555,0,0,0,33.152,17.581,14.923,14.923,0,0,0,28.657,6.6,15.317,15.317,0,0,0,17.586,1.926" transform="translate(0)" fill="#dfdfdf" stroke="rgba(255,255,255,0.12)" stroke-width="0.155" style="mix-blend-mode: multiply;isolation: isolate"/>
      <path id="Path_184717" data-name="Path 184717" d="M18.981,0a5.762,5.762,0,0,0,1.373.244A17.192,17.192,0,0,1,33.285,9.9,16.856,16.856,0,0,1,34.791,20.5a17.294,17.294,0,0,1-3.255,7.573c-.111.155-.288.288-.288.509-.8.642-1.373,1.506-2.17,2.148-.177.133-.421.266-.487.509-.177-.022-.288.111-.4.2a16.662,16.662,0,0,1-6.953,3.211,17.226,17.226,0,0,1-10.983-1.2A17.381,17.381,0,0,1,2.174,26,17.16,17.16,0,0,1,.027,16.585,17.145,17.145,0,0,1,2.839,7.994,17.661,17.661,0,0,1,15.571.111c.089-.022.221.044.266-.111ZM17.586,1.926a15.612,15.612,0,0,0-15.677,15.5,15.262,15.262,0,0,0,4.65,11.226,14.873,14.873,0,0,0,11,4.517A15.555,15.555,0,0,0,33.152,17.581,14.923,14.923,0,0,0,28.657,6.6,15.317,15.317,0,0,0,17.586,1.926" transform="translate(0)" fill="#e8eeff" stroke="rgba(255,255,255,0.12)" stroke-width="0.155" style="mix-blend-mode: multiply;isolation: isolate"/>
      <path id="Path_184704" data-name="Path 184704" d="M129.12,131.857a1.2,1.2,0,0,1,.487-.509c.8-.642,1.373-1.506,2.17-2.148.93.841,1.816,1.749,2.679,2.679,0,.044,0,.111-.022.133-.841.841-1.683,1.683-2.5,2.524-.022.022-.089.022-.133.022-.93-.886-1.838-1.771-2.679-2.7" transform="translate(-100.529 -100.592)" stroke="rgba(0,0,0,0)" stroke-width="0.078" fill="url(#linear-gradient)"/>
      <path id="Path_184705" data-name="Path 184705" d="M138.207,141.01c.044,0,.111,0,.133-.022.841-.841,1.683-1.683,2.5-2.524.022-.022.022-.089.022-.133.066-.044.155-.111.221-.155.974-.93,1.705-.886,2.569.177-.155.177-.31.354-.487.531a4.041,4.041,0,0,0-.753.753c-1.262,1.24-2.5,2.48-3.764,3.72-.155.155-.31.31-.465.443-.886-.731-1.085-1.506-.509-2.192.177-.221.354-.4.531-.6" transform="translate(-106.937 -107.065)" stroke="rgba(0,0,0,0)" stroke-width="0.078" fill="url(#linear-gradient)"/>
      <path id="Path_184706" data-name="Path 184706" d="M39.94,24.387A15.611,15.611,0,1,1,24.353,8.8,15.635,15.635,0,0,1,39.94,24.387" transform="translate(-6.788 -6.851)" fill="#b5bac9" stroke="rgba(255,255,255,0.12)" stroke-width="0.155" style="mix-blend-mode: multiply;isolation: isolate"/>
      <path id="Path_184710" data-name="Path 184710" d="M39.94,24.387A15.611,15.611,0,1,1,24.353,8.8,15.635,15.635,0,0,1,39.94,24.387" transform="translate(-6.788 -6.851)" fill="#e8eeff" stroke="rgba(255,255,255,0.12)" stroke-width="0.155" style="mix-blend-mode: multiply;isolation: isolate"/>
      <path id="Path_184711" data-name="Path 184711" d="M39.94,24.387A15.611,15.611,0,1,1,24.353,8.8,15.635,15.635,0,0,1,39.94,24.387" transform="translate(-6.788 -6.851)" fill="none" stroke="#fff" stroke-width="0.155" opacity="0.51"/>
      <path id="Path_184707" data-name="Path 184707" d="M22.02,49.639a13.081,13.081,0,0,1,2.79-7.927,1.257,1.257,0,0,1,1.727-.288,1.2,1.2,0,0,1,.4,1.639c-.376.664-.886,1.24-1.218,1.949a10.18,10.18,0,0,0-.354,8.458,1.243,1.243,0,0,1-2.3.93,10.808,10.808,0,0,1-.93-3.809c-.044-.31-.089-.642-.111-.952" transform="translate(-17.144 -32.079)" fill="#fefefe"/>
      <path id="Path_184708" data-name="Path 184708" d="M55.284,23.725a1.176,1.176,0,0,1-1.107,1.262,10.8,10.8,0,0,0-4.3,1.24,1.294,1.294,0,0,1-1.993-.554,1.186,1.186,0,0,1,.443-1.461,11.642,11.642,0,0,1,4.739-1.639,5.054,5.054,0,0,1,1-.089,1.145,1.145,0,0,1,1.218,1.24" transform="translate(-37.211 -17.502)" fill="#fefefe"/>
      <path id="Path_184709" data-name="Path 184709" d="M155.937,156h0a3.869,3.869,0,0,1-5.472,0l-9.324-9.324,5.472-5.472,9.324,9.324a3.869,3.869,0,0,1,0,5.472" transform="translate(-109.889 -109.938)" stroke="rgba(0,0,0,0)" stroke-width="0.078" fill="url(#linear-gradient)"/>
    </g>
  </g>
</svg>
