<svg xmlns="http://www.w3.org/2000/svg" xmlns:xlink="http://www.w3.org/1999/xlink" width="45.24" height="45.184" viewBox="0 0 45.24 45.184">
  <defs>
    <linearGradient id="linear-gradient" x1="0.5" x2="0.5" y2="1" gradientUnits="objectBoundingBox">
      <stop offset="0" stop-color="#51ecb4"/>
      <stop offset="1" stop-color="#339db8"/>
    </linearGradient>
  </defs>
  <g id="Group_101095" data-name="Group 101095" transform="translate(-6408.923 -5668.757)">
    <g id="Group_101092" data-name="Group 101092" transform="translate(6409 5668.807)">
      <path id="Path_184630" data-name="Path 184630" d="M154.687,208.9l-1.977-1.912c.743-1.15,1.481-2.286,2.215-3.426q1.448-2.246,2.89-4.5a.843.843,0,0,1,.611-.446c.8-.131,1.592-.3,2.382-.475a1.246,1.246,0,0,0,.579-.3q5.567-5.531,11.118-11.078l6.7-6.681c-.5-.472-.988-.919-1.46-1.371-.32-.3-.639-.6-.937-.923a.9.9,0,0,1,.32-1.558,6.918,6.918,0,0,1,.922-.373,6.155,6.155,0,0,0,2.586-1.984c1.561-1.523,3.092-3.077,4.635-4.617,1.365-1.359,2.711-2.744,4.1-4.076a4.1,4.1,0,0,1,4.682-.886,5.587,5.587,0,0,1,3.645,4.529,4,4,0,0,1-1.21,3.529c-2.527,2.557-5.08,5.088-7.623,7.628-.814.809-1.632,1.608-2.432,2.428a1.909,1.909,0,0,0-.348.57c-.255.584-.48,1.18-.734,1.765a.868.868,0,0,1-1.363.188c-.663-.634-1.312-1.284-1.957-1.937a6.244,6.244,0,0,1-.48-.628c-.412.451-.71.8-1.039,1.132q-8.039,8.063-16.1,16.106a3.512,3.512,0,0,0-1.119,2.149,14.3,14.3,0,0,1-.311,1.561.652.652,0,0,1-.24.37q-3.612,2.348-7.236,4.678C155.225,208.552,154.937,208.741,154.687,208.9Zm40.667-38.833c-.217-.215-.382-.488-.618-.58a.765.765,0,0,0-.66.165c-1.311,1.264-2.6,2.553-3.89,3.84q-2.923,2.919-5.834,5.844c-.382.381-.406.679-.062,1.024a.654.654,0,0,0,1.039-.05q1.767-1.785,3.544-3.56,3.056-3.057,6.12-6.11A3.589,3.589,0,0,0,195.354,170.07Zm-3-2.983a3.8,3.8,0,0,0-.573-.573c-.3-.193-.559,0-.776.213q-1.784,1.769-3.56,3.547-1.876,1.873-3.75,3.749c-.789.789-1.586,1.571-2.363,2.372-.37.38-.357.667-.018,1s.619.307,1-.047c.108-.1.208-.206.312-.309l5.081-5.077c1.422-1.42,2.847-2.831,4.26-4.261A3.581,3.581,0,0,0,192.355,167.087Z" transform="translate(-152.686 -163.924)" stroke="rgba(0,0,0,0)" stroke-width="0.079" fill="url(#linear-gradient)"/>
      <path id="Union_5" data-name="Union 5" d="M38.8,44.96a6.472,6.472,0,0,1-4.859-2.385c-1.7-1.9-3.376-3.836-5.056-5.758s-3.336-3.836-5.007-5.747c-.83-.95-1.66-1.909-2.507-2.844-.153-.17-2.9-3.217-4.392-5.046l-1.11-1.259a3.572,3.572,0,0,1-.5-.572,1.7,1.7,0,0,0-1.838-.8,35.931,35.931,0,0,1-4.431,0A9.2,9.2,0,0,1,.389,13.291a12.859,12.859,0,0,1,0-6.276c.018-.08.038-.154.062-.228a1.787,1.787,0,0,1,.092-.172c.848.866,1.667,1.718,2.505,2.552C4.291,10.406,5.52,11.661,6.8,12.853a1.927,1.927,0,0,0,3.018-.119c.846-.848,1.67-1.719,2.54-2.541,1.292-1.221,1.134-2.338-.041-3.537Q9.462,3.733,6.617.789C6.545.714,6.484.629,6.334.443A21.867,21.867,0,0,1,8.671.035a12.919,12.919,0,0,1,6.553,1.182,9.582,9.582,0,0,1,5.4,6.8,18.6,18.6,0,0,1,.139,4.13c.012.811-.036,1.624-.073,2.435a.683.683,0,0,0,.268.615c.713.6,1.41,1.217,2.113,1.828.119.105.231.214.326.3,2.227,1.937,8.193,7.122,9.923,8.629,2.168,1.887,4.342,3.766,6.5,5.666a45.23,45.23,0,0,1,3.492,3.211,5.9,5.9,0,0,1,.8,7.094A5.836,5.836,0,0,1,38.89,44.96ZM38.545,35.2a3.364,3.364,0,1,0,.029,0Z" transform="translate(0 0.096)" fill="#7a7a7a" opacity="0.31" style="mix-blend-mode: multiply;isolation: isolate"/>
      <path id="Union_7" data-name="Union 7" d="M38.8,44.96a6.472,6.472,0,0,1-4.859-2.385c-1.7-1.9-3.376-3.836-5.056-5.758s-3.336-3.836-5.007-5.747c-.83-.95-1.66-1.909-2.507-2.844-.153-.17-2.9-3.217-4.392-5.046l-1.11-1.259a3.572,3.572,0,0,1-.5-.572,1.7,1.7,0,0,0-1.838-.8,35.931,35.931,0,0,1-4.431,0A9.2,9.2,0,0,1,.389,13.291a12.859,12.859,0,0,1,0-6.276c.018-.08.038-.154.062-.228a1.787,1.787,0,0,1,.092-.172c.848.866,1.667,1.718,2.505,2.552C4.291,10.406,5.52,11.661,6.8,12.853a1.927,1.927,0,0,0,3.018-.119c.846-.848,1.67-1.719,2.54-2.541,1.292-1.221,1.134-2.338-.041-3.537Q9.462,3.733,6.617.789C6.545.714,6.484.629,6.334.443A21.867,21.867,0,0,1,8.671.035a12.919,12.919,0,0,1,6.553,1.182,9.582,9.582,0,0,1,5.4,6.8,18.6,18.6,0,0,1,.139,4.13c.012.811-.036,1.624-.073,2.435a.683.683,0,0,0,.268.615c.713.6,1.41,1.217,2.113,1.828.119.105.231.214.326.3,2.227,1.937,8.193,7.122,9.923,8.629,2.168,1.887,4.342,3.766,6.5,5.666a45.23,45.23,0,0,1,3.492,3.211,5.9,5.9,0,0,1,.8,7.094A5.836,5.836,0,0,1,38.89,44.96ZM38.545,35.2a3.364,3.364,0,1,0,.029,0Z" transform="translate(0 0.096)" fill="#e8eeff" stroke="rgba(255,255,255,0.12)" stroke-width="0.1"/>
      <path id="Union_6" data-name="Union 6" d="M38.8,44.96a6.472,6.472,0,0,1-4.859-2.385c-1.7-1.9-3.376-3.836-5.056-5.758s-3.336-3.836-5.007-5.747c-.83-.95-1.66-1.909-2.507-2.844-.153-.17-2.9-3.217-4.392-5.046l-1.11-1.259a3.572,3.572,0,0,1-.5-.572,1.7,1.7,0,0,0-1.838-.8,35.931,35.931,0,0,1-4.431,0A9.2,9.2,0,0,1,.389,13.291a12.859,12.859,0,0,1,0-6.276c.018-.08.038-.154.062-.228a1.787,1.787,0,0,1,.092-.172c.848.866,1.667,1.718,2.505,2.552C4.291,10.406,5.52,11.661,6.8,12.853a1.927,1.927,0,0,0,3.018-.119c.846-.848,1.67-1.719,2.54-2.541,1.292-1.221,1.134-2.338-.041-3.537Q9.462,3.733,6.617.789C6.545.714,6.484.629,6.334.443A21.867,21.867,0,0,1,8.671.035a12.919,12.919,0,0,1,6.553,1.182,9.582,9.582,0,0,1,5.4,6.8,18.6,18.6,0,0,1,.139,4.13c.012.811-.036,1.624-.073,2.435a.683.683,0,0,0,.268.615c.713.6,1.41,1.217,2.113,1.828.119.105.231.214.326.3,2.227,1.937,8.193,7.122,9.923,8.629,2.168,1.887,4.342,3.766,6.5,5.666a45.23,45.23,0,0,1,3.492,3.211,5.9,5.9,0,0,1,.8,7.094A5.836,5.836,0,0,1,38.89,44.96ZM38.545,35.2a3.364,3.364,0,1,0,.029,0Z" transform="translate(0 0.096)" fill="none" stroke="#fff" stroke-width="0.155" opacity="0.51"/>
    </g>
    <path id="Path_184666" data-name="Path 184666" d="M249.814,40.668l.573,1.048,1.048.573-1.048.573-.573,1.048-.573-1.048-1.048-.573,1.048-.573Z" transform="translate(6171.083 5643.101)" fill="#fff"/>
    <path id="Path_184667" data-name="Path 184667" d="M249.814,40.668l.573,1.048,1.048.573-1.048.573-.573,1.048-.573-1.048-1.048-.573,1.048-.573Z" transform="translate(6201.004 5653.678)" fill="#2e9898"/>
  </g>
</svg>
