<svg xmlns="http://www.w3.org/2000/svg" xmlns:xlink="http://www.w3.org/1999/xlink" width="62.189" height="40.613" viewBox="0 0 62.189 40.613">
  <defs>
    <linearGradient id="linear-gradient" y1="0.5" x2="1" y2="0.5" gradientUnits="objectBoundingBox">
      <stop offset="0" stop-color="#ff8e62"/>
      <stop offset="1" stop-color="#804731"/>
    </linearGradient>
    <linearGradient id="linear-gradient-2" y1="0.5" x2="1" y2="0.5" gradientUnits="objectBoundingBox">
      <stop offset="0" stop-color="#4c8897"/>
      <stop offset="0.707" stop-color="#5ca8bf"/>
      <stop offset="1" stop-color="#62b4cf"/>
    </linearGradient>
  </defs>
  <g id="Group_101092" data-name="Group 101092" transform="translate(-6088.562 -5641.484)">
    <g id="Group_101088" data-name="Group 101088" transform="translate(6088.612 5641.484)">
      <g id="Group_101067" data-name="Group 101067" transform="translate(0 0)">
        <g id="Group_101069" data-name="Group 101069" transform="translate(0 0)">
          <g id="Group_101087" data-name="Group 101087">
            <path id="Path_184629" data-name="Path 184629" d="M80.886,29.579a4.444,4.444,0,0,0-.23.434c-.118.253-.227.51-.332.767-5.053,0-10.107.006-15.163.091-7.069.12-14.142.1-21.212.074-4.072-.015-8.143-.034-12.215-.036a2.453,2.453,0,0,0-.408.039,4.4,4.4,0,0,0-.68-1.337.857.857,0,0,0,.074-.39,24.182,24.182,0,0,1,3.5-12.309A24.706,24.706,0,0,1,51.275,5.051c.44-.084.52-.219.39-.622-.167-.517-.291-1.049-.411-1.579A2.237,2.237,0,0,1,53.328.044c1.634-.06,3.272-.06,4.906,0A2.233,2.233,0,0,1,60.3,2.857a15.063,15.063,0,0,1-.411,1.579c-.152.439.008.541.41.61a22.542,22.542,0,0,1,6.956,2.37,24.756,24.756,0,0,1,13.39,19.164,16.769,16.769,0,0,1,.193,2.654.837.837,0,0,0,.049.345" transform="translate(-25.683 0)" fill="url(#linear-gradient)"/>
            <path id="Path_184628" data-name="Path 184628" d="M58.669,176.362a5.858,5.858,0,0,1-5.2,5.618c-.4.034-.808.044-1.211.044q-11.451,0-22.9,0-11.6,0-23.2,0a5.873,5.873,0,0,1-5.965-4.362A4.945,4.945,0,0,1,0,176.469c-.018-.868.253-1.148,1.148-1.151.368,0,.735-.006,1.1-.01h.636c.267,0,.536.008.8.019a1.026,1.026,0,0,0,.288-.019H6.362a1.888,1.888,0,0,0,.251.015q5.275-.015,10.55-.015H37.7q4.156,0,8.309,0,3.055,0,6.112.013a1.538,1.538,0,0,0,.223-.013h2.346a1.2,1.2,0,0,0,.3.018c.4-.015.8-.018,1.206-.018.487,0,.973.007,1.459.011.732.008,1.022.317,1.015,1.043" transform="translate(0 -146.921)" fill="url(#linear-gradient-2)"/>
            <path id="Path_184656" data-name="Path 184656" d="M6090.052,5664s.456-16.948,13.083-23.173c-5.513,0-19.386,7.559-20.275,23.173Z" transform="translate(-6077.778 -5635.684)" fill="#e8eeff" stroke="rgba(255,255,255,0.12)" stroke-width="0.1" style="mix-blend-mode: multiply;isolation: isolate"/>
            <path id="Path_184657" data-name="Path 184657" d="M58.669,176.362a5.858,5.858,0,0,1-5.2,5.618c-.4.034-.808.044-1.211.044q-11.451,0-22.9,0-11.6,0-23.2,0a5.873,5.873,0,0,1-5.965-4.362A4.945,4.945,0,0,1,0,176.469c-.018-.868.253-1.148,1.148-1.151.368,0,.735-.006,1.1-.01h.636c.267,0,.536.008.8.019a1.026,1.026,0,0,0,.288-.019H6.362a1.888,1.888,0,0,0,.251.015q5.275-.015,10.55-.015H37.7q4.156,0,8.309,0,3.055,0,6.112.013a1.538,1.538,0,0,0,.223-.013h2.346a1.2,1.2,0,0,0,.3.018c.4-.015.8-.018,1.206-.018.487,0,.973.007,1.459.011.732.008,1.022.317,1.015,1.043" transform="translate(0 -146.921)" fill="#e8eeff" stroke="rgba(255,255,255,0.12)" stroke-width="0.1" style="mix-blend-mode: multiply;isolation: isolate"/>
          </g>
        </g>
      </g>
      <path id="Path_184651" data-name="Path 184651" d="M3.127,25.258q.225-5.091.455-10.182a.535.535,0,0,0-.41-.644,4.706,4.706,0,0,1-2.946-3.78A11.833,11.833,0,0,1,1.851,2.01,5.008,5.008,0,0,1,3.1.619a2.611,2.611,0,0,1,3.39.013,5.072,5.072,0,0,1,1.247,1.4,11.825,11.825,0,0,1,1.63,8.53,4.77,4.77,0,0,1-3.2,3.97C5.945,14.6,6,14.758,6,14.9q.084,2.135.176,4.269c.117,2.611.242,5.221.358,7.832q.186,4.21.361,8.421a2.079,2.079,0,0,1-1.228,2.092,2.04,2.04,0,0,1-2.3-.357A2.089,2.089,0,0,1,2.68,35.4q.227-5.071.445-10.143h0m2.262,9.858a.6.6,0,1,0-.579.608.588.588,0,0,0,.579-.608" transform="translate(55.203 7.015) rotate(45)" fill="#b5bac9" stroke="rgba(255,255,255,0.12)" stroke-width="0.155" style="mix-blend-mode: multiply;isolation: isolate"/>
      <path id="Path_184659" data-name="Path 184659" d="M3.127,25.258q.225-5.091.455-10.182a.535.535,0,0,0-.41-.644,4.706,4.706,0,0,1-2.946-3.78A11.833,11.833,0,0,1,1.851,2.01,5.008,5.008,0,0,1,3.1.619a2.611,2.611,0,0,1,3.39.013,5.072,5.072,0,0,1,1.247,1.4,11.825,11.825,0,0,1,1.63,8.53,4.77,4.77,0,0,1-3.2,3.97C5.945,14.6,6,14.758,6,14.9q.084,2.135.176,4.269c.117,2.611.242,5.221.358,7.832q.186,4.21.361,8.421a2.079,2.079,0,0,1-1.228,2.092,2.04,2.04,0,0,1-2.3-.357A2.089,2.089,0,0,1,2.68,35.4q.227-5.071.445-10.143h0m2.262,9.858a.6.6,0,1,0-.579.608.588.588,0,0,0,.579-.608" transform="translate(55.203 7.015) rotate(45)" fill="#e8eeff" stroke="rgba(255,255,255,0.12)" stroke-width="0.1" style="mix-blend-mode: multiply;isolation: isolate"/>
      <path id="Path_184649" data-name="Path 184649" d="M3.127,25.258q.225-5.091.455-10.182a.535.535,0,0,0-.41-.644,4.706,4.706,0,0,1-2.946-3.78A11.833,11.833,0,0,1,1.851,2.01,5.008,5.008,0,0,1,3.1.619a2.611,2.611,0,0,1,3.39.013,5.072,5.072,0,0,1,1.247,1.4,11.825,11.825,0,0,1,1.63,8.53,4.77,4.77,0,0,1-3.2,3.97C5.945,14.6,6,14.758,6,14.9q.084,2.135.176,4.269c.117,2.611.242,5.221.358,7.832q.186,4.21.361,8.421a2.079,2.079,0,0,1-1.228,2.092,2.04,2.04,0,0,1-2.3-.357A2.089,2.089,0,0,1,2.68,35.4q.227-5.071.445-10.143h0m2.262,9.858a.6.6,0,1,0-.579.608.588.588,0,0,0,.579-.608" transform="translate(55.203 7.015) rotate(45)" fill="none" stroke="#fff" stroke-width="0.2" opacity="0.51"/>
      <path id="Path_184648" data-name="Path 184648" d="M3.125,25.229q.231-5.171.463-10.341c.007-.155.038-.293-.179-.368A4.955,4.955,0,0,1,.163,10.4,8.987,8.987,0,0,1,0,8.568Q0,4.842,0,1.117A1.58,1.58,0,0,1,.044.691.957.957,0,0,1,.946,0a.959.959,0,0,1,.92.608,1.7,1.7,0,0,1,.1.655q0,3.177,0,6.353a.91.91,0,0,0,.772.944.935.935,0,0,0,1-.584A1.632,1.632,0,0,0,3.8,7.395q0-2.353,0-4.706c0-.51,0-1.02,0-1.529A1.9,1.9,0,0,1,3.835.77a.964.964,0,0,1,1.9.062,3.5,3.5,0,0,1,.021.509q0,3,0,6a2.643,2.643,0,0,0,.029.468.91.91,0,0,0,.905.767A.93.93,0,0,0,7.6,7.762a2.884,2.884,0,0,0,.012-.391q0-3.079,0-6.157A1.5,1.5,0,0,1,7.69.635.952.952,0,0,1,8.709.009a1,1,0,0,1,.862.839,1.61,1.61,0,0,1,.01.235c0,2.627.012,5.255-.013,7.882A7.033,7.033,0,0,1,8.7,12.424,4.315,4.315,0,0,1,6.24,14.5c-.224.073-.265.183-.255.395q.3,6.463.586,12.926c.115,2.559.243,5.118.329,7.678a2.1,2.1,0,0,1-2.828,2.084,2.214,2.214,0,0,1-1.39-2.127c.037-1.385.108-2.769.17-4.153q.135-3.036.277-6.071H3.125m1.653,9.3a.6.6,0,1,0,.029,1.2.6.6,0,0,0-.029-1.2" transform="translate(24.827 13.791) rotate(-45)" fill="#fff" stroke="rgba(255,255,255,0.12)" stroke-width="0.1"/>
      <path id="Path_184650" data-name="Path 184650" d="M3.125,25.229q.231-5.171.463-10.341c.007-.155.038-.293-.179-.368A4.955,4.955,0,0,1,.163,10.4,8.987,8.987,0,0,1,0,8.568Q0,4.842,0,1.117A1.58,1.58,0,0,1,.044.691.957.957,0,0,1,.946,0a.959.959,0,0,1,.92.608,1.7,1.7,0,0,1,.1.655q0,3.177,0,6.353a.91.91,0,0,0,.772.944.935.935,0,0,0,1-.584A1.632,1.632,0,0,0,3.8,7.395q0-2.353,0-4.706c0-.51,0-1.02,0-1.529A1.9,1.9,0,0,1,3.835.77a.964.964,0,0,1,1.9.062,3.5,3.5,0,0,1,.021.509q0,3,0,6a2.643,2.643,0,0,0,.029.468.91.91,0,0,0,.905.767A.93.93,0,0,0,7.6,7.762a2.884,2.884,0,0,0,.012-.391q0-3.079,0-6.157A1.5,1.5,0,0,1,7.69.635.952.952,0,0,1,8.709.009a1,1,0,0,1,.862.839,1.61,1.61,0,0,1,.01.235c0,2.627.012,5.255-.013,7.882A7.033,7.033,0,0,1,8.7,12.424,4.315,4.315,0,0,1,6.24,14.5c-.224.073-.265.183-.255.395q.3,6.463.586,12.926c.115,2.559.243,5.118.329,7.678a2.1,2.1,0,0,1-2.828,2.084,2.214,2.214,0,0,1-1.39-2.127c.037-1.385.108-2.769.17-4.153q.135-3.036.277-6.071H3.125m1.653,9.3a.6.6,0,1,0,.029,1.2.6.6,0,0,0-.029-1.2" transform="translate(24.827 13.791) rotate(-45)" fill="none" stroke="#fff" stroke-width="0.2" opacity="0.51"/>
      <path id="Path_184652" data-name="Path 184652" d="M249.4,40.668l.425.777.777.425-.777.425-.425.777-.425-.777-.777-.425.777-.425Z" transform="translate(-199.57 -34.619)" fill="url(#linear-gradient-2)"/>
      <path id="Path_184653" data-name="Path 184653" d="M249.4,40.668l.425.777.777.425-.777.425-.425.777-.425-.777-.777-.425.777-.425Z" transform="translate(-221.262 -19.332)" fill="#fff"/>
      <path id="Path_184654" data-name="Path 184654" d="M6161.4,5651.984s-6,2.846-5.041,6.884" transform="translate(-6107.904 -5640.262)" fill="none" stroke="#fff" stroke-linecap="round" stroke-width="0.6"/>
      <path id="Path_184655" data-name="Path 184655" d="M6138.9,5657.824s1.921,2.366.29,4.234" transform="translate(-6100.778 -5642.66)" fill="none" stroke="#9b563c" stroke-linecap="round" stroke-width="0.6"/>
    </g>
  </g>
</svg>
