<svg id="surface1" xmlns="http://www.w3.org/2000/svg" width="22.678" height="26.76" viewBox="0 0 22.678 26.76">
  <path id="Path_1012" data-name="Path 1012" d="M174.059,338.441h2.268V339.8h-2.268Zm0,0" transform="translate(-164.988 -320.752)" fill="#ffde55"/>
  <path id="Path_1013" data-name="Path 1013" d="M217.449,338.441h2.268V339.8h-2.268Zm0,0" transform="translate(-206.11 -320.752)" fill="#ffe477"/>
  <path id="Path_1014" data-name="Path 1014" d="M237.526,192.275a1.361,1.361,0,0,0-2.721,0v1.361h1.361A1.361,1.361,0,0,0,237.526,192.275Zm0,0" transform="translate(-222.559 -180.936)" fill="#ffe477"/>
  <path id="Path_1015" data-name="Path 1015" d="M149.384,193.635h1.361v-1.361a1.361,1.361,0,1,0-1.361,1.361Zm0,0" transform="translate(-140.313 -180.936)" fill="#ffde55"/>
  <path id="Path_1016" data-name="Path 1016" d="M156.7,391.415a.907.907,0,0,0,.907.907h4.536a.907.907,0,0,0,0-1.814H157.61A.907.907,0,0,0,156.7,391.415Zm0,0" transform="translate(-148.539 -370.098)" fill="#939598"/>
  <path id="Path_1017" data-name="Path 1017" d="M156.7,426.126a.907.907,0,0,0,.907.907h4.536a.907.907,0,0,0,0-1.814H157.61A.907.907,0,0,0,156.7,426.126Zm0,0" transform="translate(-148.539 -402.994)" fill="#808285"/>
  <path id="Path_1018" data-name="Path 1018" d="M182.738,460.841a1.814,1.814,0,1,0,3.628,0v-.907h-3.628Zm0,0" transform="translate(-173.213 -435.895)" fill="#a97c50"/>
  <path id="Path_1019" data-name="Path 1019" d="M156.7,356.7a.907.907,0,0,0,.907.907h4.536a.907.907,0,0,0,0-1.814H157.61A.907.907,0,0,0,156.7,356.7Zm0,0" transform="translate(-148.539 -337.201)" fill="#a7a9ac"/>
  <path id="Path_1020" data-name="Path 1020" d="M85,86.719H83.639A1.361,1.361,0,1,1,85,85.359v1.361h.907V78.1a7.257,7.257,0,0,0-2.721,13.983,7.147,7.147,0,0,0,2.721.531v-5.9Zm0,0" transform="translate(-74.568 -74.02)" fill="#ffde55"/>
  <path id="Path_1021" data-name="Path 1021" d="M217.449,78.1v8.618h.907V85.359a1.361,1.361,0,1,1,1.361,1.361h-2.268v5.9a7.152,7.152,0,0,0,2.721-.531A7.257,7.257,0,0,0,217.449,78.1Zm0,0" transform="translate(-206.11 -74.02)" fill="#ffe477"/>
  <path id="Path_1022" data-name="Path 1022" d="M209.224,2.721a.453.453,0,0,1-.454-.453V.453a.454.454,0,0,1,.907,0V2.268A.453.453,0,0,1,209.224,2.721Zm0,0" transform="translate(-197.885)" fill="#ff9811"/>
  <path id="Path_1023" data-name="Path 1023" d="M63.335,63.289a.453.453,0,0,1-.321-.133l-1.283-1.283a.454.454,0,0,1,.641-.641l1.283,1.283a.453.453,0,0,1-.321.774Zm0,0" transform="translate(-58.41 -57.911)" fill="#ff9811"/>
  <path id="Path_1024" data-name="Path 1024" d="M2.768,209.177H.953a.454.454,0,0,1,0-.907H2.768a.454.454,0,0,1,0,.907Zm0,0" transform="translate(-0.5 -197.385)" fill="#ff9811"/>
  <path id="Path_1025" data-name="Path 1025" d="M61.953,333.085a.454.454,0,0,1-.321-.774l1.283-1.283a.454.454,0,0,1,.653.63l-.011.011-1.283,1.283A.454.454,0,0,1,61.953,333.085Zm0,0" transform="translate(-58.312 -313.595)" fill="#ff9811"/>
  <path id="Path_1026" data-name="Path 1026" d="M333.131,333.084a.455.455,0,0,1-.321-.133l-1.283-1.283a.454.454,0,1,1,.63-.653l.011.011,1.283,1.283a.454.454,0,0,1-.321.774Zm0,0" transform="translate(-314.095 -313.594)" fill="#ff9811"/>
  <path id="Path_1027" data-name="Path 1027" d="M384.6,209.177h-1.814a.454.454,0,0,1,0-.907H384.6a.454.454,0,1,1,0,.907Zm0,0" transform="translate(-362.375 -197.385)" fill="#ff9811"/>
  <path id="Path_1028" data-name="Path 1028" d="M331.949,63.087a.453.453,0,0,1-.321-.774l1.283-1.283a.454.454,0,0,1,.653.63l-.011.011-1.283,1.283A.454.454,0,0,1,331.949,63.087Zm0,0" transform="translate(-314.196 -57.708)" fill="#ff9811"/>
  <path id="Path_1029" data-name="Path 1029" d="M227.032,234.759v5.9h-.907v-5.9a.454.454,0,0,1,.907,0Zm0,0" transform="translate(-214.332 -222.059)" fill="#ff9811"/>
  <path id="Path_1030" data-name="Path 1030" d="M192.321,234.759v5.9h-.907v-5.9a.454.454,0,1,1,.907,0Zm0,0" transform="translate(-181.436 -222.059)" fill="#ff9811"/>
  <path id="Path_1031" data-name="Path 1031" d="M227.943,185.866a.454.454,0,1,1,0-.907.907.907,0,1,0-.907-.907.454.454,0,0,1-.907,0,1.814,1.814,0,1,1,1.814,1.814Zm0,0" transform="translate(-214.336 -172.713)" fill="#ff9811"/>
  <path id="Path_1032" data-name="Path 1032" d="M141.162,185.866a1.814,1.814,0,1,1,1.814-1.814.454.454,0,0,1-.907,0,.907.907,0,1,0-.907.907.454.454,0,1,1,0,.907Zm0,0" transform="translate(-132.091 -172.713)" fill="#ff9811"/>
  <path id="Path_1033" data-name="Path 1033" d="M170.372,235.212h-4.536a.454.454,0,0,1,0-.907h4.536a.454.454,0,0,1,0,.907Zm0,0" transform="translate(-156.765 -222.059)" fill="#ff9811"/>
  <path id="Path_1034" data-name="Path 1034" d="M191.868,210.538a.454.454,0,0,1-.454-.453v-1.361a.454.454,0,1,1,.907,0v1.361A.453.453,0,0,1,191.868,210.538Zm0,0" transform="translate(-181.436 -197.385)" fill="#ff9811"/>
  <path id="Path_1035" data-name="Path 1035" d="M226.582,210.538a.453.453,0,0,1-.453-.453v-1.361a.454.454,0,1,1,.907,0v1.361A.454.454,0,0,1,226.582,210.538Zm0,0" transform="translate(-214.336 -197.385)" fill="#ff9811"/>
</svg>
