<svg xmlns="http://www.w3.org/2000/svg" xmlns:xlink="http://www.w3.org/1999/xlink" width="55.258" height="52.314" viewBox="0 0 55.258 52.314">
  <defs>
    <linearGradient id="linear-gradient" x1="0.5" x2="0.5" y2="1" gradientUnits="objectBoundingBox">
      <stop offset="0" stop-color="#51ecb4"/>
      <stop offset="1" stop-color="#339db8"/>
    </linearGradient>
  </defs>
  <g id="Group_101119" data-name="Group 101119" transform="translate(-6417.688 -5405.871)">
    <g id="Group_101104" data-name="Group 101104">
      <path id="Path_184680" data-name="Path 184680" d="M93.03,9.978c0,1.747,0,3.43,0,5.113,0,.179.009.36,0,.538a.861.861,0,0,1-.861.855.843.843,0,0,1-.849-.862c-.019-.987-.007-1.974-.007-2.96q0-1.363,0-2.725c-3.881,1.847-7.261.656-10.436-1.609a20.819,20.819,0,0,1-5.221-5.671.835.835,0,0,1,.38-1.364C79.44.267,82.9-.474,86.458.361a9.6,9.6,0,0,1,5.517,3.325c.155.2.232.252.431.025A10.823,10.823,0,0,1,100.86.042a25.092,25.092,0,0,1,7.41,1.171c.792.236,1.017.825.551,1.488a24.1,24.1,0,0,1-5.839,6.122,10.744,10.744,0,0,1-8.168,1.852,4.469,4.469,0,0,1-.872-.265c-.281-.109-.548-.257-.912-.431" transform="translate(6353.152 5405.876)" stroke="rgba(0,0,0,0)" stroke-width="0.079" fill="url(#linear-gradient)"/>
      <path id="Path_184681" data-name="Path 184681" d="M108.451,123.109a16.857,16.857,0,0,1-1.228,6.34q-2.19,2.19-4.374,4.386a2.615,2.615,0,0,1-1.224.718c-3.1.821-6.225,1.533-9.349,2.248-2.573.588-5.151,1.164-7.725,1.742a16.939,16.939,0,1,1,23.9-15.434" transform="translate(6353.545 5314.968)" fill="#dcb178"/>
      <path id="Path_184685" data-name="Path 184685" d="M108.451,123.109a16.857,16.857,0,0,1-1.228,6.34q-2.19,2.19-4.374,4.386a2.615,2.615,0,0,1-1.224.718c-3.1.821-6.225,1.533-9.349,2.248-2.573.588-5.151,1.164-7.725,1.742a16.939,16.939,0,1,1,23.9-15.434" transform="translate(6353.545 5314.968)" fill="#e8eeff" stroke="rgba(255,255,255,0.12)" stroke-width="0.1" opacity="0.54" style="mix-blend-mode: multiply;isolation: isolate"/>
      <path id="Path_184689" data-name="Path 184689" d="M108.451,123.109a16.857,16.857,0,0,1-1.228,6.34q-2.19,2.19-4.374,4.386a2.615,2.615,0,0,1-1.224.718c-3.1.821-6.225,1.533-9.349,2.248-2.573.588-5.151,1.164-7.725,1.742a16.939,16.939,0,1,1,23.9-15.434" transform="translate(6353.545 5314.968)" fill="none" stroke="#fff" stroke-width="0.155" opacity="0.51"/>
      <g id="Group_101103" data-name="Group 101103">
        <path id="Path_184684" data-name="Path 184684" d="M55.135,88.328v.754a.674.674,0,0,0-.089.187c-.224,1.4-.439,2.8-.666,4.193-.567,3.484-1.1,6.973-1.818,10.43a2.594,2.594,0,0,1-.751,1.378q-4.233,4.209-8.45,8.436-2.19,2.19-4.374,4.386a2.615,2.615,0,0,1-1.224.718c-3.1.821-6.225,1.533-9.349,2.248-2.573.588-5.151,1.164-7.725,1.742l-1.446.324A3.443,3.443,0,0,0,16.4,126.27a1.388,1.388,0,0,1-.56,1.141H.548A1.35,1.35,0,0,1,0,126.162c.02-3.015,0-6.028.012-9.043a21.158,21.158,0,0,1,1.867-9.3,11.966,11.966,0,0,1,10.152-7.029l.026,0a16.944,16.944,0,0,1,5.411.492,14.589,14.589,0,0,0,7.569-.624c1.694-.525,3.315-1.254,4.991-1.832a6.611,6.611,0,0,1,4.632-.165,4.288,4.288,0,0,1,2.721,4.288,3.994,3.994,0,0,1-2.834,3.892c-2.319.8-4.722,1.338-7.029,2.178a14.392,14.392,0,0,0-3.776,1.909,1.31,1.31,0,0,0-.456.434,3.461,3.461,0,0,0,1.139-.232c4.194-1.1,8.383-2.206,12.576-3.3a2.031,2.031,0,0,0,.88-.479q2.923-2.645,5.86-5.277.77-.69,1.545-1.379a1.755,1.755,0,0,0,.588-1.034,54.732,54.732,0,0,1,1.309-5.982,8.665,8.665,0,0,1,2.835-4.59,6.826,6.826,0,0,1,4.245-1.286c.413,0,.618.3.873.538" transform="translate(6417.749 5330.713)" fill="#f5b662" opacity="0.61" style="mix-blend-mode: multiply;isolation: isolate"/>
        <path id="Path_184683" data-name="Path 184683" d="M55.135,88.328v.754a.674.674,0,0,0-.089.187c-.224,1.4-.439,2.8-.666,4.193-.567,3.484-1.1,6.973-1.818,10.43a2.594,2.594,0,0,1-.751,1.378q-4.233,4.209-8.45,8.436-2.19,2.19-4.374,4.386a2.615,2.615,0,0,1-1.224.718c-3.1.821-6.225,1.533-9.349,2.248-2.573.588-5.151,1.164-7.725,1.742l-1.446.324A3.443,3.443,0,0,0,16.4,126.27a1.388,1.388,0,0,1-.56,1.141H.548A1.35,1.35,0,0,1,0,126.162c.02-3.015,0-6.028.012-9.043a21.158,21.158,0,0,1,1.867-9.3,11.966,11.966,0,0,1,10.152-7.029l.026,0a16.944,16.944,0,0,1,5.411.492,14.589,14.589,0,0,0,7.569-.624c1.694-.525,3.315-1.254,4.991-1.832a6.611,6.611,0,0,1,4.632-.165,4.288,4.288,0,0,1,2.721,4.288,3.994,3.994,0,0,1-2.834,3.892c-2.319.8-4.722,1.338-7.029,2.178a14.392,14.392,0,0,0-3.776,1.909,1.31,1.31,0,0,0-.456.434,3.461,3.461,0,0,0,1.139-.232c4.194-1.1,8.383-2.206,12.576-3.3a2.031,2.031,0,0,0,.88-.479q2.923-2.645,5.86-5.277.77-.69,1.545-1.379a1.755,1.755,0,0,0,.588-1.034,54.732,54.732,0,0,1,1.309-5.982,8.665,8.665,0,0,1,2.835-4.59,6.826,6.826,0,0,1,4.245-1.286c.413,0,.618.3.873.538" transform="translate(6417.749 5330.713)" fill="#e8eeff" stroke="rgba(255,255,255,0.12)" stroke-width="0.1" style="mix-blend-mode: multiply;isolation: isolate"/>
        <path id="Path_184682" data-name="Path 184682" d="M55.135,88.328v.754a.674.674,0,0,0-.089.187c-.224,1.4-.439,2.8-.666,4.193-.567,3.484-1.1,6.973-1.818,10.43a2.594,2.594,0,0,1-.751,1.378q-4.233,4.209-8.45,8.436-2.19,2.19-4.374,4.386a2.615,2.615,0,0,1-1.224.718c-3.1.821-6.225,1.533-9.349,2.248-2.573.588-5.151,1.164-7.725,1.742l-1.446.324A3.443,3.443,0,0,0,16.4,126.27a1.388,1.388,0,0,1-.56,1.141H.548A1.35,1.35,0,0,1,0,126.162c.02-3.015,0-6.028.012-9.043a21.158,21.158,0,0,1,1.867-9.3,11.966,11.966,0,0,1,10.152-7.029l.026,0a16.944,16.944,0,0,1,5.411.492,14.589,14.589,0,0,0,7.569-.624c1.694-.525,3.315-1.254,4.991-1.832a6.611,6.611,0,0,1,4.632-.165,4.288,4.288,0,0,1,2.721,4.288,3.994,3.994,0,0,1-2.834,3.892c-2.319.8-4.722,1.338-7.029,2.178a14.392,14.392,0,0,0-3.776,1.909,1.31,1.31,0,0,0-.456.434,3.461,3.461,0,0,0,1.139-.232c4.194-1.1,8.383-2.206,12.576-3.3a2.031,2.031,0,0,0,.88-.479q2.923-2.645,5.86-5.277.77-.69,1.545-1.379a1.755,1.755,0,0,0,.588-1.034,54.732,54.732,0,0,1,1.309-5.982,8.665,8.665,0,0,1,2.835-4.59,6.826,6.826,0,0,1,4.245-1.286c.413,0,.618.3.873.538" transform="translate(6417.749 5330.713)" fill="none" stroke="#fff" stroke-width="0.123" opacity="0.51"/>
      </g>
    </g>
    <path id="Path_184690" data-name="Path 184690" d="M250.045,40.668l.654,1.2,1.2.654-1.2.654-.654,1.2-.654-1.2-1.2-.654,1.2-.654Z" transform="translate(6215.251 5370.674)" fill="#4fe6b4"/>
    <path id="Path_184691" data-name="Path 184691" d="M250.045,40.668l.654,1.2,1.2.654-1.2.654-.654,1.2-.654-1.2-1.2-.654,1.2-.654Z" transform="translate(6175.292 5399.98)" fill="#fffffe"/>
  </g>
</svg>
