<svg id="gallery" xmlns="http://www.w3.org/2000/svg" width="24" height="21.586" viewBox="0 0 24 21.586">
  <path id="Path_183719" data-name="Path 183719" d="M21.287,9.35H2.714A2.664,2.664,0,0,0,0,11.956V28.333a2.662,2.662,0,0,0,2.714,2.6H21.287A2.661,2.661,0,0,0,24,28.333V11.956A2.662,2.662,0,0,0,21.287,9.35Zm-.851,19.178H3.94c-.724,0-1.047-.5-.72-1.123l4.5-8.551a.77.77,0,0,1,1.387-.124L13.631,24.4a1.139,1.139,0,0,0,1.718.1l1.107-1.075a1.08,1.08,0,0,1,1.673.136L21,27.5C21.41,28.067,21.16,28.528,20.436,28.528Z" transform="translate(0 -9.35)" fill="#293897"/>
</svg>
